<svg version="1.1" id="Layer_1" xmlns="http://www.w3.org/2000/svg" xmlns:xlink="http://www.w3.org/1999/xlink" x="0px" y="0px"
	 width="100%" viewBox="0 0 272 160" enable-background="new 0 0 272 160" xml:space="preserve">
<path fill="#000000" opacity="1.000000" stroke="none" 
	d="
M35.155640,123.260498 
	C50.928032,91.655167 67.633034,60.947777 83.998230,30.061554 
	C85.719475,26.813026 88.296394,25.225637 92.186790,24.562378 
	C90.956017,33.642979 98.084236,40.391281 97.799232,49.556999 
	C97.502670,59.094063 99.265755,68.746262 99.397652,78.407234 
	C99.483971,84.729134 99.946030,91.046295 100.267250,97.364182 
	C100.316246,98.327904 100.337669,99.375595 102.263481,100.154099 
	C107.347687,89.702286 112.432373,79.249474 117.406227,69.024506 
	C114.763115,66.309792 111.462059,68.114792 109.161713,65.780769 
	C109.883553,63.992401 112.181129,62.160240 108.655388,59.656357 
	C114.816078,58.802372 118.279877,54.771790 123.503014,54.626312 
	C125.790863,54.562588 127.327995,51.894279 127.992744,49.782040 
	C130.114395,43.040440 134.183563,37.262569 136.916397,30.839005 
	C137.864929,28.609425 139.685410,28.524141 141.862686,27.838614 
	C144.475769,27.015875 146.163986,23.081226 148.108826,20.390125 
	C148.975830,19.190432 149.424026,17.696960 150.184875,16.409246 
	C150.991180,15.044560 151.717896,12.825658 153.783417,14.080338 
	C155.584015,15.174094 154.531982,17.056124 153.770233,18.550608 
	C153.328156,19.417934 152.780380,20.231380 152.246460,21.125519 
	C153.744492,21.863155 154.654434,19.481310 156.651428,21.528385 
	C152.168900,32.095261 143.890167,41.083382 139.701019,52.138142 
	C145.479294,56.234371 152.198486,54.183002 155.649551,47.205776 
	C160.600708,37.195763 165.722061,27.287863 171.737030,17.864922 
	C172.095337,17.303600 172.405273,16.711264 172.766632,16.152052 
	C177.335617,9.081663 177.336975,9.082542 186.294388,10.829890 
	C185.060776,25.770678 172.638535,36.714043 171.595596,51.799850 
	C173.681824,53.220703 176.263901,52.640087 178.686020,52.743523 
	C185.674698,53.041973 192.679016,53.029552 199.659637,53.438747 
	C203.244583,53.648899 205.269791,52.104652 206.675888,49.070255 
	C208.494141,45.146370 210.577164,41.340294 212.284973,37.371098 
	C216.084656,28.540010 222.821365,21.724319 228.097610,13.909916 
	C229.768021,11.435947 232.259384,10.925435 235.929291,10.516699 
	C233.873978,17.047304 236.403732,23.340258 233.088058,29.663929 
	C221.473831,51.814671 213.148315,75.426750 203.450287,98.431114 
	C198.603394,109.928238 194.850006,121.883026 189.089127,132.994446 
	C186.412262,138.157501 182.436996,142.488419 179.398819,147.462662 
	C178.034760,149.695984 173.798737,150.482956 170.935455,152.111221 
	C168.705383,153.379379 168.104141,150.580658 168.807861,148.685547 
	C169.904922,145.731155 171.806015,143.008408 172.515457,139.987640 
	C177.900131,117.059792 189.041016,96.167595 195.748169,73.719391 
	C196.070236,72.641457 196.744720,71.567444 196.171951,70.340309 
	C195.400391,69.231705 194.164780,69.175789 193.036240,69.218330 
	C185.040710,69.519730 177.051559,69.479118 169.129501,68.285881 
	C163.440506,67.428993 160.561218,70.369949 158.465836,75.126152 
	C153.496048,86.406845 147.771896,97.308815 141.882782,108.142113 
	C138.129715,115.046066 130.794830,119.091362 127.879410,126.559326 
	C127.717369,126.974388 126.804176,127.096207 126.238831,127.355324 
	C122.407547,116.234047 126.616127,106.635155 130.973053,97.059738 
	C135.162659,87.852036 139.350739,78.643631 143.679001,69.128883 
	C139.267563,67.149498 135.312592,68.133034 131.473541,68.472198 
	C129.577377,68.639717 128.551422,70.639374 128.947327,72.236374 
	C129.748032,75.466263 128.025436,77.654419 126.611389,80.067886 
	C118.104500,94.587364 110.198524,109.427971 103.353905,124.802483 
	C101.442696,129.095474 97.586983,130.826553 94.395340,133.976486 
	C92.371521,130.781128 95.284409,129.154175 95.327721,126.564972 
	C88.925133,126.120865 89.410805,120.685715 88.741615,116.444252 
	C86.869141,104.576111 86.310402,92.578720 86.714447,80.578468 
	C86.929092,74.203606 85.413338,67.994720 85.510574,61.655731 
	C85.530777,60.338909 85.217216,58.989201 83.044579,57.940956 
	C79.787895,64.184502 76.448555,70.405289 73.279037,76.711426 
	C69.766304,83.700424 67.414162,91.532875 62.767593,97.635963 
	C53.968220,109.193619 49.088867,122.610443 42.548401,135.238678 
	C41.754608,136.771332 41.124146,138.756577 38.636257,138.453720 
	C36.462666,131.489166 40.015060,125.390427 42.285168,117.807907 
	C39.636677,120.500595 38.904503,122.662010 37.964905,124.705353 
	C37.540443,125.628426 36.953598,126.632217 35.747784,126.187126 
	C34.521797,125.734589 34.900688,124.580215 35.155640,123.260498 
z"/>
</svg>